<svg xmlns="http://www.w3.org/2000/svg" viewBox="0 0 24 24" aria-hidden="true">
  <path transform="rotate(-90 12 12)" d="M18.31 14.84Q18.57 15.01 18.61 15.35Q18.65 15.7 18.53 15.87L12.64 22.61Q12.6 22.66 12.55 22.74Q12.55 22.79 12.53 22.81Q12.51 22.83 12.47 22.83L12.38 22.91Q12.3 23 11.99 23Q11.74 23 11.65 22.91L11.52 22.83Q11.48 22.79 11.44 22.72Q11.39 22.66 11.35 22.61L5.59 15.95Q5.38 15.78 5.38 15.39Q5.38 15.01 5.59 14.84Q6.37 14.32 6.8 14.92L11.09 19.99V1.82Q11.09 1 11.91 1Q12.73 1 12.73 1.82V19.99L17.15 14.92Q17.67 14.41 18.31 14.84Z"/>
</svg>
